<svg width="95" height="95" viewBox="0 0 95 95" fill="none" xmlns="http://www.w3.org/2000/svg">
<path d="M19.7917 47.5H67.2917V82.0833C67.2917 84.8448 65.0532 87.0833 62.2917 87.0833H24.7917C22.0303 87.0833 19.7917 84.8448 19.7917 82.0833V47.5Z" stroke="white"/>
<path d="M67.2917 51.4584H79.1251C81.3342 51.4584 83.1251 53.2492 83.1251 55.4584V63.2917C83.1251 65.5008 81.3342 67.2917 79.1251 67.2917H67.2917" stroke="white"/>
<path d="M35.6251 35.625C35.6251 35.625 31.6667 33.6458 31.6667 27.7083C31.6667 21.7708 35.6251 19.7916 35.6251 19.7916" stroke="white" stroke-linecap="round"/>
<path d="M47.5002 11.875C47.5002 11.875 51.4585 13.8542 51.4585 19.7917C51.4585 25.7292 47.5002 27.7084 47.5002 27.7084" stroke="white" stroke-linecap="round"/>
</svg>
