<svg width="21" height="21" viewBox="0 0 21 21" fill="none" xmlns="http://www.w3.org/2000/svg">
<path d="M6.37508 3.16671C6.37508 2.01611 7.30782 1.08337 8.45841 1.08337C9.60901 1.08337 10.5417 2.01611 10.5417 3.16671V5.25004H15.7501V10.4584H17.8334C18.984 10.4584 19.9167 11.3911 19.9167 12.5417C19.9167 13.6923 18.984 14.625 17.8334 14.625H15.7501V19.8334H10.5417V17.75C10.5417 16.5994 9.60901 15.6667 8.45841 15.6667C7.30782 15.6667 6.37508 16.5994 6.37508 17.75V19.8334H1.16675V14.625H3.25008C4.40067 14.625 5.33341 13.6923 5.33341 12.5417C5.33341 11.3911 4.40067 10.4584 3.25008 10.4584H1.16675V5.25004H6.37508V3.16671Z" stroke="white"/>
</svg>
