<svg width="138" height="138" viewBox="0 0 138 138" fill="none" xmlns="http://www.w3.org/2000/svg">
    <path fill-rule="evenodd" clip-rule="evenodd" d="M69 92C81.7025 92 92 81.7025 92 69C92 56.2975 81.7025 46 69 46C56.2975 46 46 56.2975 46 69C46 81.7025 56.2975 92 69 92Z" stroke="#2329D6"/>
    <path d="M69 28.75V17.25" stroke="#2329D6" stroke-linecap="round" stroke-linejoin="round"/>
    <path d="M69 120.75V109.25" stroke="#2329D6" stroke-linecap="round" stroke-linejoin="round"/>
    <path fill-rule="evenodd" clip-rule="evenodd" d="M28.75 69H11.5H28.75Z" stroke="#2329D6" stroke-linecap="round" stroke-linejoin="round"/>
    <path fill-rule="evenodd" clip-rule="evenodd" d="M126.5 69H109.25H126.5Z" stroke="#2329D6" stroke-linecap="round" stroke-linejoin="round"/>
    <path fill-rule="evenodd" clip-rule="evenodd" d="M97.4611 40.539L109.659 28.3414L97.4611 40.539Z" stroke="#2329D6" stroke-linecap="round" stroke-linejoin="round"/>
    <path fill-rule="evenodd" clip-rule="evenodd" d="M28.3414 109.659L40.539 97.4611L28.3414 109.659Z" stroke="#2329D6" stroke-linecap="round" stroke-linejoin="round"/>
    <path fill-rule="evenodd" clip-rule="evenodd" d="M97.4611 97.4611L109.659 109.659L97.4611 97.4611Z" stroke="#2329D6" stroke-linecap="round" stroke-linejoin="round"/>
    <path fill-rule="evenodd" clip-rule="evenodd" d="M28.3414 28.3414L40.539 40.539L28.3414 28.3414Z" stroke="#2329D6" stroke-linecap="round" stroke-linejoin="round"/>
</svg>
