<svg width="168" height="167" viewBox="0 0 168 167" fill="none" xmlns="http://www.w3.org/2000/svg">
    <path d="M77 55.6667L63.4205 48.9174C63.1439 48.7799 62.8393 48.7083 62.5304 48.7083H49.8249C49.2966 48.7083 48.7897 48.9174 48.4149 49.2899L35.59 62.0385C35.2124 62.4139 35 62.9244 35 63.4569L35 110.259C35 110.93 35.3361 111.556 35.8952 111.927L75.7625 138.347C76.4974 138.834 77.4644 138.782 78.1432 138.22L119 104.375" stroke="#381316"/>
    <path fill-rule="evenodd" clip-rule="evenodd" d="M94.8458 81.4243C94.2425 80.6214 93.1374 80.3903 92.263 80.8843L64.3192 96.6714C63.539 97.1122 62.5609 96.9802 61.9254 96.3485L50.5625 85.0532C49.7251 84.2208 49.7873 82.8478 50.6966 82.0946L90.4449 49.1682C90.8037 48.871 91.2549 48.7083 91.7208 48.7083H104.53C104.839 48.7083 105.144 48.7799 105.421 48.9174L131.89 62.0734C132.57 62.4113 133 63.1051 133 63.8644L133 126.217C133 128.138 130.555 128.954 129.401 127.418L94.8458 81.4243Z" stroke="#381316"/>
    <path d="M7 118.292V55.6667" stroke="#381316" stroke-linecap="round"/>
    <path d="M7 118.292V55.6667" stroke="#381316" stroke-linecap="round"/>
    <path d="M161 118.292V55.6667" stroke="#381316" stroke-linecap="round"/>
</svg>
