<svg viewBox="0 0 196 196" fill="none" xmlns="http://www.w3.org/2000/svg">
    <path d="M44.9167 159.25C44.9167 159.25 73.5 147 81.6667 138.833C89.8333 130.667 65.3333 130.667 65.3333 89.8333C65.3333 49 98 49 98 49C98 49 130.667 49 130.667 89.8333C130.667 130.667 106.167 130.667 114.333 138.833C122.5 147 151.083 159.25 151.083 159.25" stroke="#FBFDFF" stroke-linecap="round"/>
    <path fill-rule="evenodd" clip-rule="evenodd" d="M98 179.667C143.103 179.667 179.667 143.103 179.667 97.9999C179.667 52.8967 143.103 16.3333 98 16.3333C52.8967 16.3333 16.3333 52.8967 16.3333 97.9999C16.3333 143.103 52.8967 179.667 98 179.667Z" stroke="#FBFDFF"/>
</svg>
