<svg version="1.1" id="Ebene_1" xmlns="http://www.w3.org/2000/svg" xmlns:xlink="http://www.w3.org/1999/xlink" x="0px" y="0px" viewBox="0 0 315.3 67.3" style="enable-background:new 0 0 315.3 67.3;" xml:space="preserve">
<style type="text/css">
	.st0{fill:#C964CF;}
</style>
    <path d="M19.7,46.6v4.3H0V16.4h5.1v30.2H19.7z"/>
    <path d="M47.1,46.7l0,4.2H25.7V16.4h21.4v4.2H30.9v10.9h13.1v4H30.9v11.2H47.1z"/>
    <path d="M81.3,34.1v13.4c-1.7,1.2-3.6,2.2-5.6,2.8c-2,0.6-4.1,0.9-6.4,0.9c-2.8,0-5.3-0.4-7.5-1.3c-2.2-0.9-4.2-2.1-5.7-3.6  c-1.6-1.6-2.8-3.4-3.7-5.6c-0.9-2.2-1.3-4.5-1.3-7.1c0-2.6,0.4-5,1.2-7.2c0.8-2.2,2-4,3.5-5.6s3.4-2.7,5.6-3.6S66,16,68.8,16  c1.4,0,2.7,0.1,3.8,0.3c1.2,0.2,2.3,0.5,3.3,0.9c1,0.4,1.9,0.8,2.8,1.4c0.9,0.5,1.7,1.1,2.4,1.8l-1.5,2.3c-0.2,0.4-0.5,0.6-0.9,0.7  c-0.4,0.1-0.8,0-1.2-0.3c-0.4-0.2-0.9-0.5-1.4-0.8c-0.5-0.3-1.1-0.6-1.8-0.9c-0.7-0.3-1.5-0.5-2.4-0.7s-2-0.3-3.3-0.3  c-1.9,0-3.6,0.3-5.1,0.9C62,22,60.7,22.9,59.6,24c-1.1,1.2-1.9,2.5-2.5,4.2s-0.9,3.4-0.9,5.5c0,2.1,0.3,4,0.9,5.7  c0.6,1.7,1.5,3.1,2.6,4.2c1.1,1.2,2.5,2,4.1,2.7c1.6,0.6,3.4,0.9,5.3,0.9c0.8,0,1.5,0,2.1-0.1s1.3-0.2,1.9-0.4  c0.6-0.2,1.2-0.4,1.8-0.6c0.6-0.2,1.1-0.5,1.7-0.8V38h-5.1c-0.3,0-0.6-0.1-0.8-0.3c-0.2-0.2-0.3-0.4-0.3-0.7v-2.9H81.3z"/>
    <path d="M118.3,50.9h-3.9c-0.4,0-0.8-0.1-1.1-0.3s-0.5-0.5-0.6-0.9l-3-8H94.4l-3,8c-0.1,0.3-0.3,0.6-0.6,0.8  c-0.3,0.2-0.7,0.4-1.1,0.4h-3.9l13.7-34.5h5.2L118.3,50.9z M108.2,38l-5.1-13.4c-0.4-0.9-0.7-2.1-1.1-3.5c-0.2,0.7-0.4,1.3-0.5,1.9  c-0.2,0.6-0.4,1.1-0.5,1.6L95.8,38H108.2z"/>
    <path d="M143.7,46.6v4.3H124V16.4h5.1v30.2H143.7z"/>
    <path d="M202.2,20.7h-10.9v30.2h-5.1V20.7h-11v-4.3h27V20.7z"/>
    <path d="M229.5,46.7l0,4.2h-21.4V16.4h21.4v4.2h-16.2v10.9h13.1v4h-13.1v11.2H229.5z"/>
    <path d="M259.7,43.5c0.3,0,0.5,0.1,0.7,0.3l2,2.2c-1.4,1.7-3.1,3-5.1,3.9c-2,0.9-4.5,1.4-7.3,1.4c-2.5,0-4.8-0.4-6.8-1.3  c-2-0.9-3.8-2.1-5.2-3.6c-1.4-1.6-2.5-3.4-3.3-5.6s-1.2-4.5-1.2-7.1c0-2.6,0.4-5,1.2-7.1c0.8-2.2,2-4,3.5-5.6  c1.5-1.6,3.3-2.8,5.3-3.6c2.1-0.9,4.4-1.3,6.9-1.3c2.4,0,4.6,0.4,6.5,1.2c1.9,0.8,3.6,1.9,5,3.2l-1.7,2.4c-0.1,0.2-0.3,0.3-0.4,0.4  c-0.2,0.1-0.4,0.2-0.7,0.2c-0.3,0-0.7-0.2-1.1-0.5c-0.4-0.3-0.9-0.6-1.6-1c-0.7-0.4-1.5-0.7-2.5-1c-1-0.3-2.2-0.5-3.6-0.5  c-1.7,0-3.3,0.3-4.7,0.9c-1.4,0.6-2.7,1.5-3.7,2.6c-1,1.1-1.8,2.5-2.4,4.2c-0.6,1.6-0.9,3.5-0.9,5.6c0,2.1,0.3,4,0.9,5.6  c0.6,1.6,1.4,3,2.4,4.2s2.3,2,3.7,2.6c1.4,0.6,2.9,0.9,4.6,0.9c1,0,1.9-0.1,2.7-0.2s1.5-0.3,2.2-0.5c0.7-0.2,1.3-0.5,1.9-0.9  s1.2-0.8,1.8-1.4c0.1-0.1,0.3-0.2,0.4-0.3C259.3,43.5,259.5,43.5,259.7,43.5z"/>
    <path d="M296.7,16.4v34.5h-5.1V35.4h-18v15.5h-5.1V16.4h5.1v15.2h18V16.4H296.7z"/>
    <path d="M217.2,62.1c0,0.7-0.1,1.4-0.4,2c-0.2,0.6-0.6,1.2-1,1.6s-1,0.8-1.6,1s-1.3,0.4-2.1,0.4h-3.9V57.1h3.9  c0.8,0,1.5,0.1,2.1,0.4c0.6,0.2,1.2,0.6,1.6,1c0.4,0.4,0.8,1,1,1.6C217,60.7,217.2,61.4,217.2,62.1z M215.2,62.1  c0-0.6-0.1-1.1-0.2-1.5c-0.1-0.4-0.4-0.8-0.6-1.1c-0.3-0.3-0.6-0.5-1-0.7s-0.8-0.2-1.3-0.2h-2v7.1h2c0.5,0,0.9-0.1,1.3-0.2  s0.7-0.4,1-0.7c0.3-0.3,0.5-0.7,0.6-1.1C215.1,63.2,215.2,62.7,215.2,62.1z"/>
    <path d="M221.2,58.6v2.8h3.5v1.4h-3.5v2.9h4.5v1.5h-6.4V57.1h6.4v1.5H221.2z"/>
    <path d="M232,65.7c0.4,0,0.7-0.1,1-0.2s0.5-0.3,0.7-0.5c0.2-0.2,0.3-0.5,0.5-0.8c0.1-0.3,0.2-0.7,0.2-1v-6.1h1.9v6.1  c0,0.6-0.1,1.2-0.3,1.7s-0.5,1-0.8,1.3s-0.8,0.7-1.3,0.9c-0.5,0.2-1.1,0.3-1.8,0.3c-0.7,0-1.2-0.1-1.8-0.3c-0.5-0.2-1-0.5-1.3-0.9  c-0.4-0.4-0.6-0.8-0.8-1.3c-0.2-0.5-0.3-1.1-0.3-1.7v-6.1h1.9v6.1c0,0.4,0.1,0.7,0.2,1.1c0.1,0.3,0.3,0.6,0.5,0.8s0.4,0.4,0.7,0.5  S231.6,65.7,232,65.7z"/>
    <path d="M245.9,58.6h-3.1v8.6h-1.9v-8.6h-3.1v-1.5h8V58.6z"/>
    <path d="M253.1,58.9c-0.1,0.1-0.1,0.2-0.2,0.2c-0.1,0-0.1,0.1-0.2,0.1c-0.1,0-0.2,0-0.3-0.1s-0.3-0.2-0.4-0.2  c-0.2-0.1-0.3-0.2-0.6-0.2c-0.2-0.1-0.5-0.1-0.8-0.1c-0.3,0-0.5,0-0.7,0.1c-0.2,0.1-0.4,0.2-0.5,0.3c-0.1,0.1-0.2,0.2-0.3,0.4  s-0.1,0.3-0.1,0.5c0,0.2,0.1,0.4,0.2,0.6c0.1,0.2,0.3,0.3,0.5,0.4c0.2,0.1,0.5,0.2,0.7,0.3c0.3,0.1,0.6,0.2,0.9,0.3  c0.3,0.1,0.6,0.2,0.9,0.4c0.3,0.1,0.5,0.3,0.7,0.5c0.2,0.2,0.4,0.5,0.5,0.7s0.2,0.7,0.2,1.1c0,0.5-0.1,0.9-0.2,1.3  c-0.2,0.4-0.4,0.7-0.7,1c-0.3,0.3-0.7,0.5-1.1,0.7c-0.4,0.2-0.9,0.3-1.5,0.3c-0.3,0-0.6,0-1-0.1c-0.3-0.1-0.6-0.2-0.9-0.3  s-0.6-0.3-0.8-0.4s-0.5-0.3-0.7-0.5l0.6-0.9c0-0.1,0.1-0.1,0.2-0.2c0.1,0,0.2-0.1,0.2-0.1c0.1,0,0.2,0,0.4,0.1  c0.1,0.1,0.3,0.2,0.5,0.3c0.2,0.1,0.4,0.2,0.7,0.3s0.5,0.1,0.9,0.1c0.5,0,1-0.1,1.2-0.4c0.3-0.3,0.4-0.6,0.4-1.1  c0-0.3-0.1-0.5-0.2-0.7s-0.3-0.3-0.5-0.4s-0.5-0.2-0.7-0.3c-0.3-0.1-0.6-0.2-0.9-0.3c-0.3-0.1-0.6-0.2-0.9-0.3  c-0.3-0.1-0.5-0.3-0.7-0.5s-0.4-0.5-0.5-0.8c-0.1-0.3-0.2-0.7-0.2-1.2c0-0.4,0.1-0.7,0.2-1.1c0.1-0.3,0.4-0.7,0.6-0.9  c0.3-0.3,0.6-0.5,1-0.7c0.4-0.2,0.9-0.2,1.4-0.2c0.6,0,1.1,0.1,1.7,0.3s0.9,0.4,1.3,0.8L253.1,58.9z"/>
    <path d="M262.9,64.8c0.1,0,0.2,0,0.3,0.1l0.7,0.8c-0.4,0.5-0.9,0.9-1.5,1.2s-1.3,0.4-2.2,0.4c-0.8,0-1.4-0.1-2-0.4  c-0.6-0.3-1.1-0.6-1.5-1.1c-0.4-0.5-0.8-1-1-1.6c-0.2-0.6-0.3-1.3-0.3-2.1c0-0.8,0.1-1.5,0.4-2.1c0.2-0.6,0.6-1.2,1-1.6  c0.4-0.5,1-0.8,1.6-1.1c0.6-0.3,1.3-0.4,2-0.4c0.7,0,1.4,0.1,2,0.4c0.6,0.2,1.1,0.6,1.5,1l-0.6,0.9c0,0.1-0.1,0.1-0.1,0.1  c-0.1,0-0.1,0.1-0.2,0.1c-0.1,0-0.1,0-0.2-0.1c-0.1,0-0.2-0.1-0.2-0.1c-0.1-0.1-0.2-0.1-0.3-0.2c-0.1-0.1-0.3-0.1-0.4-0.2  c-0.2-0.1-0.3-0.1-0.5-0.1c-0.2,0-0.4-0.1-0.7-0.1c-0.5,0-0.9,0.1-1.2,0.2c-0.4,0.2-0.7,0.4-1,0.7c-0.3,0.3-0.5,0.7-0.6,1.1  c-0.1,0.4-0.2,0.9-0.2,1.5c0,0.6,0.1,1.1,0.2,1.5c0.2,0.4,0.4,0.8,0.7,1.1s0.6,0.5,1,0.7s0.8,0.2,1.2,0.2c0.3,0,0.5,0,0.7,0  c0.2,0,0.4-0.1,0.6-0.1s0.3-0.1,0.5-0.2s0.3-0.2,0.5-0.4c0,0,0.1-0.1,0.1-0.1S262.8,64.8,262.9,64.8z"/>
    <path d="M274.2,57.1v10.1h-1.9v-4.4h-4.8v4.4h-1.9V57.1h1.9v4.4h4.8v-4.4H274.2z"/>
    <path d="M282.9,65.6v1.6H277V57.1h1.9v8.6H282.9z"/>
    <path d="M293.4,67.2H292c-0.2,0-0.3,0-0.4-0.1c-0.1-0.1-0.2-0.2-0.2-0.3l-0.8-2.1h-4.2l-0.8,2.1c0,0.1-0.1,0.2-0.2,0.3  s-0.2,0.1-0.4,0.1h-1.5l4-10.1h1.9L293.4,67.2z M290.1,63.4l-1.2-3.4c-0.1-0.1-0.1-0.3-0.2-0.5c-0.1-0.2-0.1-0.4-0.2-0.7  c-0.1,0.2-0.1,0.5-0.2,0.7c-0.1,0.2-0.1,0.4-0.2,0.5l-1.2,3.4H290.1z"/>
    <path d="M303.5,57.1v10.1h-1c-0.1,0-0.3,0-0.4-0.1s-0.2-0.1-0.3-0.2l-5.3-6.7c0,0.3,0,0.6,0,0.9v6.2H295V57.1h1c0.1,0,0.1,0,0.2,0  s0.1,0,0.2,0c0,0,0.1,0.1,0.1,0.1c0,0,0.1,0.1,0.1,0.2l5.3,6.8c0-0.2,0-0.3,0-0.5c0-0.2,0-0.3,0-0.4v-6.2H303.5z"/>
    <path d="M315.3,62.1c0,0.7-0.1,1.4-0.4,2c-0.2,0.6-0.6,1.2-1,1.6s-1,0.8-1.6,1s-1.3,0.4-2.1,0.4h-3.9V57.1h3.9  c0.8,0,1.5,0.1,2.1,0.4c0.6,0.2,1.2,0.6,1.6,1c0.4,0.4,0.8,1,1,1.6C315.2,60.7,315.3,61.4,315.3,62.1z M313.4,62.1  c0-0.6-0.1-1.1-0.2-1.5c-0.1-0.4-0.4-0.8-0.6-1.1c-0.3-0.3-0.6-0.5-1-0.7s-0.8-0.2-1.3-0.2h-2v7.1h2c0.5,0,0.9-0.1,1.3-0.2  s0.7-0.4,1-0.7c0.3-0.3,0.5-0.7,0.6-1.1C313.3,63.2,313.4,62.7,313.4,62.1z"/>
    <path class="st0" d="M190,56.9c-0.9,0-1.3,0.4-1.3,1.3v5.4v1h-62.1h0v-6.5c0-0.9-0.5-1.3-1.3-1.3H124v10.4h2.6h64.7v-3.6v-6.8H190z"/>
    <path class="st0" d="M125.2,10.4c0.9,0,1.3-0.4,1.3-1.3V3.6v-1h62.1h0v6.5c0,0.9,0.5,1.3,1.3,1.3h1.3V0h-2.6H124v3.6v6.8H125.2z"/>
</svg>
