<?xml version="1.0" standalone="no"?>
<!DOCTYPE svg PUBLIC "-//W3C//DTD SVG 20010904//EN"
 "http://www.w3.org/TR/2001/REC-SVG-20010904/DTD/svg10.dtd">
<svg version="1.0" xmlns="http://www.w3.org/2000/svg"
 width="718.000000pt" height="720.000000pt" viewBox="0 0 718.000000 720.000000"
 preserveAspectRatio="xMidYMid meet">

<g transform="translate(0.000000,720.000000) scale(0.100000,-0.100000)"
fill="#000000" stroke="none">
<path d="M2930 3765 l0 -266 158 3 c149 3 157 4 157 23 0 19 -7 20 -130 22
l-130 1 -3 241 -2 241 -25 0 -25 0 0 -265z"/>
<path d="M3357 4023 c-4 -3 -7 -12 -7 -20 0 -10 21 -13 85 -13 l85 0 0 -245 0
-245 25 0 25 0 0 245 0 245 85 0 c78 0 85 2 85 20 0 19 -7 20 -188 20 -104 0
-192 -3 -195 -7z"/>
<path d="M3931 3778 c-46 -139 -86 -259 -88 -265 -3 -8 4 -13 19 -13 22 0 27
9 53 90 l29 91 100 -3 99 -3 26 -85 c24 -76 29 -85 53 -88 l26 -3 -83 255
c-46 141 -87 260 -90 266 -3 5 -18 10 -34 10 -26 0 -28 -4 -110 -252z m183
-10 l15 -48 -85 0 c-46 0 -84 3 -84 6 0 7 67 228 77 254 5 13 28 -50 77 -212z"/>
<path d="M1530 3113 l0 -119 64 1 c36 0 68 4 72 8 4 4 -20 7 -54 7 l-62 0 0
104 c0 59 -4 108 -10 111 -6 4 -10 -36 -10 -112z"/>
<path d="M2570 3116 c0 -66 4 -117 10 -121 6 -4 10 37 10 114 0 74 -4 121 -10
121 -6 0 -10 -45 -10 -114z"/>
<path d="M2890 3220 c0 -5 16 -10 35 -10 l35 0 0 -104 c0 -59 4 -108 10 -111
6 -4 10 33 10 104 l0 111 41 0 c24 0 38 4 34 10 -3 6 -42 10 -86 10 -46 0 -79
-4 -79 -10z"/>
<path d="M3690 3116 c0 -66 4 -117 10 -121 6 -4 10 16 10 53 0 64 21 97 57 90
15 -3 19 -15 21 -71 2 -37 7 -67 13 -67 6 0 9 29 7 71 -4 87 -20 105 -68 77
l-30 -17 0 49 c0 28 -4 50 -10 50 -6 0 -10 -45 -10 -114z"/>
<path d="M4145 3120 c-20 -61 -35 -116 -32 -123 4 -10 13 7 32 61 3 7 22 12
48 12 42 0 45 -2 60 -42 9 -23 19 -39 23 -36 10 11 -67 238 -81 238 -8 0 -28
-44 -50 -110z m80 -11 c5 -16 1 -19 -29 -19 -20 0 -36 3 -36 6 0 3 8 31 17 62
l16 57 14 -44 c7 -24 15 -52 18 -62z"/>
<path d="M4920 3116 c0 -66 4 -117 10 -121 6 -4 10 16 10 53 0 64 21 97 57 90
15 -3 19 -15 21 -71 2 -37 7 -67 13 -67 6 0 9 29 7 71 -4 87 -20 105 -68 77
l-30 -17 0 49 c0 28 -4 50 -10 50 -6 0 -10 -45 -10 -114z"/>
<path d="M2145 3160 c-4 -6 -16 -8 -26 -5 -12 4 -31 -1 -46 -10 -22 -15 -24
-22 -19 -55 4 -23 2 -41 -4 -45 -8 -5 -7 -12 2 -23 10 -12 10 -16 1 -19 -16
-6 -17 -35 -1 -51 15 -15 82 -16 109 -2 43 24 12 70 -48 70 -15 0 -34 4 -42 9
-19 12 -3 33 20 26 12 -4 31 1 46 10 21 14 24 22 20 51 -4 25 -2 34 9 34 8 0
14 5 14 10 0 13 -27 13 -35 0z m-10 -55 c0 -27 -3 -30 -30 -30 -21 0 -31 5
-33 18 -6 33 6 49 35 45 24 -3 28 -8 28 -33z m13 -110 c21 -8 13 -34 -13 -41
-38 -9 -75 3 -75 25 0 28 36 34 88 16z"/>
<path d="M1811 3141 c-41 -41 -34 -121 13 -142 29 -14 75 -4 83 17 8 22 -7 32
-18 11 -14 -24 -55 -21 -73 5 -9 12 -16 26 -16 30 0 5 27 8 60 8 65 0 69 4 45
49 -23 45 -62 54 -94 22z m77 -28 c14 -23 14 -23 -37 -23 -53 0 -55 3 -28 38
15 19 47 11 65 -15z"/>
<path d="M2329 3141 c-13 -11 -20 -23 -16 -28 5 -4 13 0 18 10 13 22 65 23 73
1 9 -23 -2 -34 -32 -34 -58 0 -91 -50 -56 -84 19 -20 44 -20 70 -1 17 13 16
14 -18 8 -30 -4 -39 -2 -44 12 -9 23 28 55 63 55 23 0 25 -3 20 -29 -4 -17 0
-36 8 -47 13 -17 14 -12 15 49 0 54 -4 71 -20 87 -25 25 -51 25 -81 1z"/>
<path d="M3201 3141 c-41 -41 -34 -121 13 -142 29 -14 75 -4 83 17 8 22 -7 32
-18 11 -14 -24 -55 -21 -73 5 -9 12 -16 26 -16 30 0 5 27 8 60 8 65 0 69 4 45
49 -23 45 -62 54 -94 22z m77 -28 c14 -23 14 -23 -37 -23 -53 0 -55 3 -28 38
15 19 47 11 65 -15z"/>
<path d="M3460 3142 c-13 -10 -23 -33 -27 -59 -5 -35 -2 -45 20 -67 32 -31 60
-33 88 -5 25 25 17 39 -10 15 -31 -29 -64 -17 -75 26 -16 65 32 111 76 71 26
-23 34 -9 9 16 -26 26 -52 27 -81 3z"/>
<path d="M4429 3141 c-13 -11 -20 -23 -16 -28 5 -4 13 0 18 10 13 22 65 23 73
1 9 -23 -2 -34 -32 -34 -58 0 -91 -50 -56 -84 19 -20 44 -20 70 -1 17 13 16
14 -18 8 -30 -4 -39 -2 -44 12 -9 23 28 55 63 55 23 0 25 -3 20 -29 -4 -17 0
-36 8 -47 13 -17 14 -12 15 49 0 54 -4 71 -20 87 -25 25 -51 25 -81 1z"/>
<path d="M4690 3142 c-13 -10 -23 -33 -27 -59 -5 -35 -2 -45 20 -67 32 -31 60
-33 88 -5 25 25 17 39 -10 15 -31 -29 -64 -17 -75 26 -16 65 32 111 76 71 26
-23 34 -9 9 16 -26 26 -52 27 -81 3z"/>
<path d="M5211 3141 c-41 -41 -34 -121 13 -142 29 -14 75 -4 83 17 8 22 -7 32
-18 11 -14 -24 -55 -21 -73 5 -9 12 -16 26 -16 30 0 5 27 8 60 8 65 0 69 4 45
49 -23 45 -62 54 -94 22z m77 -28 c14 -23 14 -23 -37 -23 -53 0 -55 3 -28 38
15 19 47 11 65 -15z"/>
<path d="M5458 3154 c-12 -11 -10 -154 2 -154 6 0 10 24 10 53 0 59 22 92 57
85 15 -3 19 -15 21 -71 2 -37 7 -67 13 -67 6 0 9 29 7 71 -4 86 -20 105 -68
77 -25 -14 -29 -15 -32 -1 -2 8 -6 11 -10 7z"/>
</g>
</svg>
