<?xml version="1.0" standalone="no"?>
<!DOCTYPE svg PUBLIC "-//W3C//DTD SVG 20010904//EN"
 "http://www.w3.org/TR/2001/REC-SVG-20010904/DTD/svg10.dtd">
<svg version="1.0" xmlns="http://www.w3.org/2000/svg" viewBox="0 0 718.000000 720.000000"
 preserveAspectRatio="xMidYMid meet">

<g transform="translate(0.000000,720.000000) scale(0.100000,-0.100000)"
fill="#000000" stroke="none">
<path d="M910 5110 c0 -7 850 -10 2529 -10 1676 0 2532 3 2536 10 4 7 -842 10
-2529 10 -1684 0 -2536 -3 -2536 -10z"/>
<path d="M3000 4555 l0 -235 140 0 c133 0 140 1 140 20 0 19 -7 20 -120 20
l-120 0 0 215 c0 208 -1 215 -20 215 -19 0 -20 -7 -20 -235z"/>
<path d="M3380 4770 c0 -18 7 -20 75 -20 l75 0 0 -215 c0 -208 1 -215 20 -215
19 0 20 7 20 215 l0 215 75 0 c68 0 75 2 75 20 0 19 -7 20 -170 20 -163 0
-170 -1 -170 -20z"/>
<path d="M3896 4562 c-42 -125 -76 -230 -76 -235 0 -4 9 -7 19 -7 15 0 24 15
42 68 12 37 26 72 31 78 5 7 40 11 90 10 l82 -1 25 -78 c21 -65 29 -77 47 -77
21 0 19 9 -51 223 -39 123 -75 229 -79 235 -4 7 -18 12 -31 12 -22 0 -29 -17
-99 -228z m141 70 c18 -59 33 -110 33 -114 0 -5 -34 -8 -76 -8 -57 0 -75 3
-71 13 4 10 45 146 64 210 8 28 15 15 50 -101z"/>
<path d="M1530 3960 l0 -120 64 0 c36 0 68 5 71 10 4 6 -17 10 -54 10 l-61 0
0 110 c0 67 -4 110 -10 110 -6 0 -10 -47 -10 -120z"/>
<path d="M2570 3960 c0 -73 4 -120 10 -120 6 0 10 47 10 120 0 73 -4 120 -10
120 -6 0 -10 -47 -10 -120z"/>
<path d="M2885 4070 c-4 -6 10 -10 34 -10 l41 0 0 -110 c0 -67 4 -110 10 -110
6 0 10 43 10 110 l0 110 40 0 c22 0 40 5 40 10 0 6 -35 10 -84 10 -47 0 -88
-4 -91 -10z"/>
<path d="M3690 3960 c0 -73 4 -120 10 -120 6 0 10 27 10 60 0 52 3 61 25 76
42 27 55 13 55 -60 0 -36 5 -68 10 -71 6 -4 10 21 10 69 0 66 -3 77 -20 86
-16 8 -28 8 -50 -4 l-30 -14 0 49 c0 27 -4 49 -10 49 -6 0 -10 -47 -10 -120z"/>
<path d="M4145 3970 c-20 -61 -35 -116 -32 -123 4 -10 13 7 32 61 3 7 22 12
49 12 44 0 46 -1 57 -40 7 -22 16 -40 21 -40 12 0 11 5 -29 127 -21 62 -43
113 -49 113 -7 0 -29 -50 -49 -110z m85 -27 c0 -2 -16 -3 -35 -3 -19 0 -35 3
-35 6 0 3 7 31 16 62 l17 56 18 -60 c10 -32 19 -60 19 -61z"/>
<path d="M4920 3960 c0 -73 4 -120 10 -120 6 0 10 27 10 60 0 52 3 61 25 76
42 27 55 13 55 -60 0 -36 5 -68 10 -71 6 -4 10 21 10 69 0 66 -3 77 -20 86
-16 8 -28 8 -50 -4 l-30 -14 0 49 c0 27 -4 49 -10 49 -6 0 -10 -47 -10 -120z"/>
<path d="M2144 4009 c-3 -6 -16 -8 -28 -5 -12 3 -32 -1 -44 -10 -19 -13 -21
-22 -18 -80 2 -35 0 -67 -5 -70 -18 -10 -9 -43 14 -50 32 -10 87 -6 103 7 37
31 0 69 -66 69 -16 0 -31 4 -35 9 -7 13 16 26 41 23 31 -4 58 31 51 68 -5 22
-3 30 8 30 8 0 15 5 15 10 0 13 -27 13 -36 -1z m-9 -54 c0 -27 -3 -30 -30 -30
-21 0 -31 5 -33 18 -6 33 6 49 35 45 24 -3 28 -8 28 -33z m22 -121 c8 -22 -15
-35 -57 -32 -28 2 -36 8 -38 26 -3 20 1 22 43 22 33 0 47 -5 52 -16z"/>
<path d="M1824 4000 c-12 -5 -27 -24 -34 -44 -26 -79 34 -141 101 -106 10 6
19 18 19 27 0 15 -2 15 -18 0 -29 -26 -71 -22 -82 9 -6 14 -10 27 -10 30 0 2
27 4 60 4 33 0 60 2 60 5 0 16 -30 75 -39 75 -5 0 -15 2 -23 4 -7 3 -23 1 -34
-4z m64 -37 c14 -23 14 -23 -37 -23 -53 0 -55 3 -28 38 15 19 47 11 65 -15z"/>
<path d="M2329 3991 c-13 -11 -20 -23 -16 -28 5 -4 13 0 18 10 18 31 79 16 79
-20 0 -8 -13 -13 -34 -13 -19 0 -44 -9 -57 -19 -20 -16 -22 -23 -14 -47 13
-35 57 -45 86 -18 17 16 19 16 19 1 0 -10 5 -17 10 -17 6 0 10 28 10 65 0 52
-4 69 -20 85 -25 25 -51 25 -81 1z m81 -77 c0 -32 -20 -54 -51 -54 -51 0 -48
53 4 63 41 8 47 7 47 -9z"/>
<path d="M3214 4000 c-12 -5 -27 -24 -34 -44 -26 -79 34 -141 101 -106 10 6
19 18 19 27 0 15 -2 15 -18 0 -29 -26 -71 -22 -82 9 -6 14 -10 27 -10 30 0 2
27 4 60 4 33 0 60 2 60 5 0 16 -30 75 -39 75 -5 0 -15 2 -23 4 -7 3 -23 1 -34
-4z m64 -37 c14 -23 14 -23 -37 -23 -53 0 -55 3 -28 38 15 19 47 11 65 -15z"/>
<path d="M3477 4003 c-21 -5 -47 -53 -47 -86 0 -37 36 -77 69 -77 29 0 70 34
57 48 -4 4 -14 -1 -21 -11 -9 -12 -23 -17 -42 -15 -23 2 -30 9 -37 40 -16 65
32 111 76 71 26 -23 34 -9 9 16 -21 21 -30 23 -64 14z"/>
<path d="M4429 3991 c-13 -11 -20 -23 -16 -28 5 -4 13 0 18 10 18 31 79 16 79
-20 0 -8 -13 -13 -34 -13 -19 0 -44 -9 -57 -19 -20 -16 -22 -23 -14 -47 13
-35 57 -45 86 -18 17 16 19 16 19 1 0 -10 5 -17 10 -17 6 0 10 28 10 65 0 52
-4 69 -20 85 -25 25 -51 25 -81 1z m81 -77 c0 -32 -20 -54 -51 -54 -51 0 -48
53 4 63 41 8 47 7 47 -9z"/>
<path d="M4707 4003 c-21 -5 -47 -53 -47 -86 0 -37 36 -77 69 -77 29 0 70 34
57 48 -4 4 -14 -1 -21 -11 -9 -12 -23 -17 -42 -15 -23 2 -30 9 -37 40 -16 65
32 111 76 71 26 -23 34 -9 9 16 -21 21 -30 23 -64 14z"/>
<path d="M5224 4000 c-12 -5 -27 -24 -34 -44 -26 -79 34 -141 101 -106 10 6
19 18 19 27 0 15 -2 15 -18 0 -29 -26 -71 -22 -82 9 -6 14 -10 27 -10 30 0 2
27 4 60 4 33 0 60 2 60 5 0 16 -30 75 -39 75 -5 0 -15 2 -23 4 -7 3 -23 1 -34
-4z m64 -37 c14 -23 14 -23 -37 -23 -53 0 -55 3 -28 38 15 19 47 11 65 -15z"/>
<path d="M5498 3996 c-16 -8 -28 -11 -28 -5 0 5 -4 9 -10 9 -6 0 -10 -33 -10
-80 0 -47 4 -80 10 -80 6 0 10 27 10 60 0 52 3 61 25 76 42 27 55 13 55 -60 0
-36 5 -68 10 -71 6 -4 10 21 10 69 0 64 -3 77 -19 86 -24 12 -21 13 -53 -4z"/>
<path d="M1490 3566 c0 -38 192 -180 333 -246 81 -38 250 -90 293 -90 16 0 24
-10 33 -41 58 -193 486 -348 1091 -396 190 -16 694 -8 845 12 357 48 582 106
757 197 93 48 173 123 189 178 11 37 15 40 58 46 129 17 271 65 396 133 123
66 265 178 265 208 0 11 -134 12 -737 8 -786 -6 -883 -9 -883 -29 0 -15 86
-89 165 -143 127 -86 282 -148 433 -173 72 -12 73 -12 55 -32 -100 -111 -690
-189 -1328 -175 -503 11 -873 66 -1019 149 -56 33 -56 45 1 53 190 25 373 94
529 201 103 71 158 120 143 130 -7 4 -312 11 -678 15 -966 11 -941 11 -941 -5z
m1250 -21 c107 -2 226 -4 264 -4 l69 -1 -19 -21 c-24 -26 -124 -97 -194 -137
-74 -41 -193 -88 -287 -113 -114 -30 -358 -37 -478 -14 -206 38 -391 128 -529
256 l-51 48 515 -5 c283 -3 603 -7 710 -9z m2955 -16 c-43 -45 -198 -146 -283
-185 -97 -44 -209 -79 -304 -94 -113 -18 -371 -8 -470 19 -156 43 -291 113
-428 222 -51 40 -53 44 -31 49 13 3 259 7 545 9 287 1 522 3 523 4 1 1 108 3
239 5 l238 3 -29 -32z m-3320 -335 c40 -62 283 -132 550 -159 33 -4 71 -8 84
-10 166 -27 945 -27 1169 0 370 45 567 96 625 164 21 25 27 26 120 26 53 0 97
-4 97 -9 0 -22 -51 -94 -88 -123 -229 -184 -823 -297 -1467 -279 -602 17
-1070 132 -1244 307 -28 29 -61 84 -61 104 0 3 45 4 100 3 92 -1 101 -3 115
-24z"/>
<path d="M3430 2535 c0 -150 4 -235 10 -235 6 0 10 85 10 235 0 150 -4 235
-10 235 -6 0 -10 -85 -10 -235z"/>
<path d="M3580 2535 c0 -150 4 -235 10 -235 6 0 10 85 10 235 0 150 -4 235
-10 235 -6 0 -10 -85 -10 -235z"/>
<path d="M3730 2535 c0 -150 4 -235 10 -235 6 0 10 85 10 235 0 150 -4 235
-10 235 -6 0 -10 -85 -10 -235z"/>
<path d="M930 2090 c0 -7 852 -10 2535 -10 1683 0 2535 3 2535 10 0 7 -852 10
-2535 10 -1683 0 -2535 -3 -2535 -10z"/>
</g>
</svg>
